<svg width="372" height="346" viewBox="0 0 372 346" fill="none" xmlns="http://www.w3.org/2000/svg">
<path fill-rule="evenodd" clip-rule="evenodd" d="M344.824 164.894C346.107 164.222 347.53 163.865 348.978 163.852L348.952 163.918C351.379 163.918 353.707 164.882 355.424 166.598C357.141 168.315 358.105 170.643 358.105 173.071C358.105 175.498 357.141 177.826 355.424 179.543C353.707 181.26 351.379 182.224 348.952 182.224C347.504 182.217 346.078 181.86 344.798 181.182L332.104 193.89C328.722 217.734 319.539 240.383 305.36 259.85L310.087 268.964C311.863 268.838 313.638 269.235 315.191 270.106C316.745 270.977 318.009 272.284 318.827 273.866C319.646 275.448 319.983 277.235 319.797 279.006C319.611 280.777 318.911 282.455 317.782 283.833L317.717 283.937C316.946 284.861 316.001 285.623 314.935 286.18C313.869 286.737 312.703 287.077 311.505 287.181C310.307 287.285 309.1 287.151 307.953 286.786C306.807 286.422 305.745 285.834 304.827 285.057C304.393 284.688 303.996 284.278 303.642 283.833H283.526C261.898 303.003 235.112 315.391 206.499 319.456L193.791 332.15C194.469 333.43 194.826 334.856 194.833 336.304C194.821 337.676 194.501 339.027 193.894 340.258C193.288 341.488 192.411 342.566 191.33 343.41C190.249 344.255 188.991 344.845 187.651 345.135C186.31 345.426 184.921 345.41 183.587 345.09C182.253 344.769 181.009 344.151 179.948 343.282C178.886 342.413 178.034 341.316 177.455 340.072C176.877 338.829 176.586 337.47 176.606 336.099C176.625 334.727 176.954 333.377 177.568 332.15L164.861 319.456C136.247 315.391 109.461 303.003 87.8336 283.833H69.4232C69.0844 285.076 68.4803 286.231 67.6525 287.218C66.6954 288.343 65.4794 289.218 64.109 289.769C62.7386 290.32 61.255 290.529 59.7857 290.379C58.3165 290.229 56.9056 289.725 55.6747 288.909C54.4437 288.092 53.4295 286.989 52.7194 285.695C52.0093 284.4 51.6245 282.951 51.5981 281.475C51.5718 279.998 51.9047 278.537 52.5681 277.218C53.2316 275.898 54.2058 274.76 55.4069 273.9C56.6079 273.041 57.9998 272.486 59.4628 272.284L65.9729 259.785C51.7944 240.318 42.6113 217.669 39.2296 193.825L26.535 181.117C25.2556 181.796 23.8301 182.154 22.3816 182.159C21.0098 182.147 19.6583 181.827 18.4278 181.22C17.1973 180.614 16.1196 179.737 15.275 178.656C14.4305 177.575 13.8408 176.317 13.5501 174.977C13.2593 173.636 13.275 172.247 13.5958 170.913C13.9167 169.579 14.5345 168.335 15.4032 167.274C16.2719 166.212 17.3691 165.36 18.6129 164.781C19.8568 164.203 21.2152 163.912 22.5869 163.932C23.9585 163.951 25.3081 164.28 26.535 164.894L39.2296 152.186C42.607 128.323 51.795 105.655 65.9859 86.1745L61.2596 77.0605C59.4818 77.1864 57.7061 76.7883 56.1523 75.9154C54.5984 75.0426 53.3345 73.7333 52.517 72.1496C51.6996 70.5659 51.3643 68.7773 51.5529 67.0051C51.7414 65.2328 52.4454 63.5548 53.5777 62.1785C53.6023 62.1457 53.6241 62.1108 53.6428 62.0743C54.4131 61.1486 55.3592 60.3847 56.4265 59.8268C57.4938 59.2689 58.661 58.928 59.8608 58.8239C61.0606 58.7198 62.2691 58.8545 63.4165 59.2202C64.5639 59.5859 65.6275 60.1754 66.5458 60.9546C66.9724 61.3265 67.3645 61.7361 67.7176 62.1785H87.8466C109.479 43.035 136.259 30.6702 164.861 26.6206L177.568 13.926C176.954 12.6991 176.625 11.3495 176.606 9.97784C176.586 8.60616 176.877 7.24775 177.455 6.00392C178.034 4.76009 178.886 3.66292 179.948 2.79422C181.009 1.92552 182.253 1.3077 183.587 0.986828C184.921 0.665956 186.31 0.650312 187.651 0.941061C188.991 1.23181 190.249 1.82145 191.33 2.66602C192.411 3.51058 193.288 4.58829 193.894 5.81878C194.501 7.04926 194.821 8.40078 194.833 9.77256C194.828 11.2211 194.471 12.6466 193.791 13.926L206.499 26.6206C235.11 30.6914 261.895 43.0787 283.526 62.2436H303.668L303.733 62.1394C304.503 61.2156 305.448 60.4533 306.515 59.8966C307.581 59.3398 308.746 58.9996 309.945 58.8955C311.143 58.7914 312.35 58.9255 313.496 59.2901C314.642 59.6547 315.705 60.2425 316.623 61.0197C317.054 61.3915 317.45 61.8011 317.808 62.2436C318.937 63.621 319.638 65.299 319.823 67.0703C320.009 68.8417 319.672 70.6286 318.853 72.2104C318.035 73.7921 316.771 75.0994 315.217 75.9706C313.664 76.8419 311.889 77.2388 310.113 77.1125L305.386 86.2266C319.565 105.693 328.748 128.342 332.13 152.186L344.824 164.894ZM30.1936 177.719L38.3312 185.843C37.9666 181.612 37.7453 177.328 37.7453 173.006C37.7453 168.683 37.9666 164.399 38.3312 160.168L30.1936 168.305C31.0701 169.719 31.5344 171.349 31.5344 173.012C31.5344 174.675 31.0701 176.305 30.1936 177.719ZM302.259 71.4794C301.699 70.119 301.476 68.6432 301.611 67.1782L288.916 67.2433C293.605 71.8304 297.989 76.719 302.04 81.8779L305.373 75.3679C305.304 75.3182 305.233 75.2723 305.161 75.2266C305.046 75.1525 304.931 75.0789 304.827 74.9903C303.7 74.0444 302.819 72.8398 302.259 71.4794ZM185.634 18.8603C183.971 18.8603 182.341 18.396 180.927 17.5195L172.79 25.6571C177.021 25.2925 181.292 25.0712 185.628 25.0712C189.963 25.0712 194.234 25.2925 198.465 25.6571L190.341 17.5195C188.927 18.396 187.297 18.8603 185.634 18.8603ZM69.7617 67.1782C69.9648 69.5955 69.207 71.9953 67.6525 73.8575C67.1554 74.3979 66.601 74.8825 65.9989 75.3028L69.3321 81.8128C73.3709 76.6514 77.7466 71.7625 82.4303 67.1782H69.7617ZM66.5327 274.328C67.935 275.503 68.9512 277.073 69.4492 278.833H82.4303C77.7422 274.254 73.3622 269.369 69.319 264.211L64.6839 273.156C65.3472 273.467 65.9684 273.861 66.5327 274.328ZM185.673 327.151C187.336 327.151 188.966 327.615 190.38 328.492L198.517 320.406C194.286 320.771 190.002 321.005 185.68 321.005C181.357 321.005 177.073 320.771 172.842 320.406L180.966 328.492C182.38 327.615 184.01 327.151 185.673 327.151ZM247.122 67.1782L288.291 108.361L293.03 99.1165C284.51 86.7676 273.942 75.966 261.782 67.1782H247.122ZM308.186 128.256C305.054 119.75 301.044 111.594 296.22 103.921L292.015 112.085L308.186 128.256ZM269.139 193.577C278.715 188.77 287.728 182.914 296.012 176.117L236.692 173.149L296.038 170.037C289.949 165.02 283.451 160.521 276.612 156.587C274.646 155.455 272.498 154.296 270.245 153.124C273.087 155.373 275.791 157.791 278.344 160.363C279.988 162.019 281.548 163.758 283.018 165.571C284.021 166.821 284.515 167.511 284.515 167.511C284.515 167.511 283.916 166.899 282.718 165.845C281.521 164.79 279.737 163.293 277.367 161.509C274.998 159.725 272.068 157.655 268.592 155.481C266.873 154.4 264.972 153.293 262.967 152.173C262.84 152.102 262.712 152.031 262.584 151.959L262.262 151.779C260.473 150.776 258.612 149.733 256.587 148.801L253.15 147.109C251.952 146.575 250.78 146.093 249.478 145.559L245.689 143.945L241.705 142.5L237.617 141.015L233.333 139.713L228.958 138.411L224.623 137.409C218.881 136.276 212.814 135.351 206.395 134.714C213.32 138.452 219.104 143.995 223.133 150.755C227.162 157.515 229.286 165.24 229.279 173.11C229.272 180.979 227.135 188.701 223.095 195.454C219.054 202.207 213.261 207.74 206.33 211.467C208.426 211.259 210.496 211.024 212.527 210.764L215.131 210.347C215.699 210.249 216.269 210.164 216.838 210.079L216.839 210.079C217.848 209.928 218.854 209.778 219.844 209.553L224.441 208.498L228.945 207.444L233.32 206.142L237.604 204.84L241.692 203.369L245.676 201.923L249.452 200.283C249.935 200.074 250.418 199.874 250.898 199.675L250.898 199.674C251.649 199.363 252.394 199.054 253.124 198.72L256.561 197.041C257.991 196.383 259.324 195.644 260.621 194.925C261.403 194.492 262.172 194.065 262.941 193.669C264.735 192.743 266.368 191.728 267.92 190.762C268.137 190.628 268.352 190.494 268.566 190.361C272.042 188.174 274.998 186.143 277.341 184.333C279.685 182.523 281.508 181.065 282.692 179.997C283.877 178.93 284.489 178.331 284.489 178.331C284.489 178.331 283.994 178.969 282.992 180.271C281.525 182.087 279.965 183.825 278.318 185.479C275.766 188.056 273.061 190.478 270.219 192.731L269.139 193.577ZM101.153 152.981C91.9114 157.706 83.2069 163.416 75.1911 170.011L132.297 173.032L75.2562 176.026C81.3693 181.095 87.903 185.634 94.7863 189.593C97.0649 190.908 99.5778 192.288 102.182 193.59L101.127 192.757C98.2856 190.508 95.5813 188.09 93.0286 185.518C91.3838 183.866 89.8279 182.127 88.3674 180.31C87.3519 179.06 86.8701 178.37 86.8701 178.37C86.8701 178.37 87.456 178.982 88.6539 180.036C89.8517 181.091 91.6615 182.575 94.0182 184.359C96.3748 186.143 99.3173 188.213 102.794 190.387C104.499 191.468 106.387 192.601 108.405 193.708C108.768 193.907 109.133 194.109 109.501 194.312L109.502 194.313L109.503 194.313L109.503 194.313L109.503 194.313C111.18 195.241 112.917 196.202 114.785 197.067L118.236 198.759C119.334 199.254 120.432 199.704 121.624 200.193L121.626 200.193L121.907 200.309L125.683 201.923L129.68 203.369L133.769 204.853L138.052 206.09L142.414 207.392L146.932 208.446L151.528 209.501C152.516 209.719 153.525 209.872 154.542 210.026L154.542 210.026C155.107 210.112 155.674 210.198 156.241 210.295L157.856 210.543C160.186 210.868 162.556 211.142 164.978 211.389C158.04 207.653 152.244 202.107 148.207 195.34C144.169 188.574 142.041 180.84 142.047 172.96C142.054 165.081 144.196 157.35 148.245 150.59C152.294 143.831 158.099 138.294 165.043 134.57C159.227 135.152 153.685 135.937 148.416 136.927L146.932 137.265L142.414 138.32L138.052 139.622L133.769 140.924L129.68 142.395L125.683 143.841L121.907 145.468C121.508 145.636 121.107 145.802 120.708 145.967C119.87 146.312 119.038 146.656 118.236 147.018L114.785 148.71C113.299 149.398 111.907 150.163 110.552 150.909C109.829 151.306 109.116 151.698 108.405 152.069C106.746 152.936 105.233 153.871 103.789 154.764L103.788 154.764L103.788 154.764C103.453 154.971 103.122 155.175 102.794 155.376C99.3173 157.564 96.3748 159.595 94.0182 161.405C91.6615 163.215 89.8387 164.673 88.6539 165.74C87.469 166.808 86.8701 167.407 86.8701 167.407C86.8701 167.407 87.3519 166.769 88.3674 165.467C89.8279 163.65 91.3838 161.911 93.0286 160.259C95.5852 157.669 98.2985 155.238 101.153 152.981ZM157.02 147.327C156.162 148.683 155.707 150.256 155.707 151.861C155.717 153.836 156.422 155.745 157.699 157.251C156.94 157.774 156.328 158.484 155.924 159.313C155.519 160.142 155.336 161.062 155.392 161.982C155.447 162.903 155.74 163.793 156.241 164.568C156.742 165.342 157.435 165.973 158.252 166.401C159.069 166.828 159.983 167.038 160.905 167.008C161.827 166.978 162.725 166.711 163.513 166.232C164.301 165.753 164.952 165.078 165.403 164.274C165.853 163.469 166.088 162.561 166.084 161.639C166.074 161.14 165.995 160.645 165.85 160.168C167.424 159.852 168.876 159.096 170.037 157.988C171.198 156.879 172.02 155.464 172.408 153.906C172.796 152.349 172.734 150.713 172.229 149.189C171.723 147.666 170.796 146.317 169.554 145.3C168.312 144.283 166.807 143.639 165.214 143.444C163.62 143.249 162.005 143.51 160.554 144.198C159.103 144.885 157.878 145.97 157.02 147.327ZM202.239 182.629C199.327 189.028 194.422 194.313 188.258 197.692H188.193C183.403 200.294 178.037 201.651 172.586 201.64C167.136 201.629 161.775 200.249 156.996 197.627C161.433 202.834 167.195 206.745 173.673 208.947C180.15 211.148 187.102 211.558 193.793 210.133C200.484 208.707 206.666 205.5 211.684 200.85C216.702 196.199 220.369 190.279 222.299 183.716C224.228 177.152 224.348 170.189 222.644 163.563C220.941 156.937 217.479 150.895 212.623 146.075C207.768 141.256 201.7 137.838 195.062 136.184C188.423 134.53 181.461 134.701 174.912 136.68C181.925 137.176 188.588 139.93 193.905 144.529C199.222 149.128 202.908 155.325 204.41 162.193C205.912 169.061 205.151 176.23 202.239 182.629ZM139.51 128.607C154.677 125.228 170.172 123.547 185.711 123.594C201.272 123.542 216.79 125.223 231.979 128.607L200.223 67.1782H171.279L139.51 128.607ZM100.515 142.122C110.953 137.097 121.854 133.099 133.065 130.183L165.577 67.1782H131.321L85.477 113.035L100.515 142.122ZM165.616 278.833L133.065 215.829H133C121.812 212.913 110.933 208.918 100.515 203.902L85.477 232.989L131.321 278.833H165.616ZM232.018 217.404C201.566 224.084 170.028 224.084 139.576 217.404L171.201 278.833H200.262L232.018 217.404ZM271 203.902C260.587 208.919 249.713 212.913 238.528 215.829L205.783 278.833H240.039L286.052 232.989L271 203.902ZM205.978 67.1782L238.528 130.183H238.372C249.557 133.103 260.432 137.101 270.844 142.122L285.895 113.035L240.039 67.1782H205.978ZM230.404 50.4604L242.122 62.1785H254.309C246.761 57.4668 238.751 53.5403 230.404 50.4604ZM203.205 62.1785H235.052L220.079 47.2184C211.297 44.8074 202.285 43.3323 193.192 42.8176L203.205 62.1785ZM173.792 62.1785H197.58L187.463 42.6483H185.68H183.909L173.792 62.1785ZM136.32 62.1785H168.181L178.18 42.8176C169.083 43.3313 160.067 44.8064 151.281 47.2184L136.32 62.1785ZM117.038 62.1785H129.264L140.93 50.4604C132.586 53.5402 124.581 57.4667 117.038 62.1785ZM83.0552 108.361L124.264 67.1782L109.525 67.1261C97.3634 75.9117 86.7948 86.7137 78.2769 99.0645L83.0552 108.361ZM63.1605 128.256L79.3706 112.085L75.126 103.921C70.3073 111.597 66.2974 119.752 63.1605 128.256ZM96.1014 144.374L81.7793 116.759L59.8404 138.607C53.6604 161.123 53.6604 184.888 59.8404 207.405L81.7532 229.266L96.0363 201.65C83.2251 195.133 71.4631 186.733 61.1424 176.729L60.6607 176.248C58.6425 174.216 57.653 173.006 57.653 173.006C57.653 173.006 58.6425 171.795 60.6607 169.764L61.1424 169.282C71.4838 159.277 83.268 150.881 96.1014 144.374ZM75.152 242.09L79.3706 233.94L63.1866 217.756C66.3181 226.261 70.3282 234.417 75.152 242.09ZM124.264 278.833L83.0813 237.65L78.3289 246.895C86.849 259.244 97.4173 270.045 109.577 278.833H124.264ZM140.995 295.551L129.277 283.833H117.09C124.634 288.55 132.645 292.476 140.995 295.551ZM168.168 283.833H136.347L151.281 298.793C160.068 301.203 169.084 302.682 178.18 303.207L168.168 283.833ZM197.593 283.833H173.818L183.935 303.363H185.706H187.489L197.593 283.833ZM193.206 303.205C202.293 302.679 211.3 301.201 220.079 298.793L235.065 283.833H203.231L193.206 303.205ZM230.486 295.495C238.833 292.43 246.842 288.513 254.387 283.807H242.174L230.486 295.495ZM247.122 278.833H261.782C273.964 270.053 284.55 259.251 293.082 246.895L288.304 237.65L247.122 278.833ZM301.981 275.353C302.345 274.209 302.932 273.148 303.707 272.232C304.182 271.637 304.734 271.107 305.347 270.656L302.014 264.211C297.974 269.388 293.598 274.294 288.916 278.898H301.585C301.482 277.702 301.616 276.497 301.981 275.353ZM292.015 234.005L296.233 242.155V242.09C301.053 234.438 305.063 226.304 308.199 217.821L292.015 234.005ZM289.606 229.266L311.467 207.47V207.392C317.664 184.878 317.664 161.108 311.467 138.593L289.606 116.733L275.284 144.348C301.207 157.863 313.667 172.993 313.667 172.993C313.667 172.993 301.207 188.122 275.284 201.637L289.606 229.266ZM323.966 161.73C324.083 163.202 324.188 164.53 324.279 165.727V165.662C324.656 170.454 324.904 173.006 324.904 173.006C324.904 173.006 324.839 170.441 324.734 165.649C324.73 165.459 324.725 165.265 324.72 165.068C324.713 164.846 324.706 164.619 324.699 164.389V164.388V164.388V164.387V164.386V164.385V164.385C324.672 163.521 324.643 162.599 324.643 161.613C324.661 160.002 324.557 158.391 324.331 156.796C324.088 154.887 323.821 152.824 323.535 150.613L323.525 150.537C323.293 148.744 323.049 146.854 322.794 144.869C322.465 143.502 322.139 142.08 321.803 140.611L321.801 140.604L321.801 140.604C321.062 137.377 320.272 133.929 319.279 130.352C318.394 127.774 317.478 125.092 316.532 122.305C316.36 121.827 316.203 121.339 316.044 120.848C315.745 119.922 315.443 118.984 315.034 118.074C314.642 117.2 314.24 116.32 313.833 115.432C313.592 114.906 313.35 114.376 313.107 113.842C307.502 100.805 299.796 88.7749 290.296 78.2323C279.122 65.587 265.785 55.0323 250.91 47.0621C234.202 38.0958 215.827 32.6623 196.929 31.0995C176.734 29.3596 156.401 31.9839 137.31 38.7944C117.488 45.752 99.4824 57.0749 84.6243 71.9262C69.7661 86.7776 58.4351 104.778 51.4685 124.597C51.18 125.458 50.8593 126.312 50.5387 127.166L50.5386 127.167L50.5385 127.167C49.9475 128.741 49.3569 130.315 48.9686 131.927C48.5958 133.475 48.1926 135.029 47.7907 136.577L47.7902 136.579C47.5466 137.518 47.3034 138.455 47.0677 139.388C45.9954 143.096 45.4434 146.976 44.8951 150.83C44.7177 152.077 44.5406 153.321 44.3465 154.556L43.8127 158.358C43.7434 159.18 43.7087 159.997 43.6741 160.812L43.6741 160.812L43.674 160.812L43.674 160.812L43.674 160.812L43.674 160.813C43.6566 161.223 43.6391 161.633 43.6174 162.043L43.3049 169.373L43.1616 171.287V172.198V173.279L43.37 176.964C43.5002 179.438 43.6434 181.898 43.7866 184.346C45.3623 203.209 50.7955 221.547 59.7493 238.223C67.7158 253.089 78.2713 266.413 90.9194 277.57C101.445 287.06 113.452 294.766 126.464 300.381L130.696 302.308C131.582 302.65 132.472 302.95 133.356 303.249L133.358 303.249C133.889 303.428 134.417 303.607 134.94 303.793L142.974 306.553C146.447 307.509 149.766 308.272 152.882 308.988L152.883 308.988L152.885 308.989L152.888 308.99C154.477 309.355 156.014 309.708 157.491 310.068L169.587 311.657C171.182 311.882 172.793 311.987 174.404 311.969L178.427 312.06L185.784 312.23L178.441 311.657L174.43 311.344C172.826 311.269 171.229 311.078 169.652 310.771L157.934 308.701C156.47 308.279 154.947 307.861 153.373 307.428C150.34 306.596 147.115 305.71 143.755 304.639L135.943 301.605C135.499 301.428 135.05 301.254 134.599 301.079C133.689 300.726 132.769 300.369 131.855 299.978L127.779 297.908C106.061 287.3 87.4974 271.193 73.9321 251.189C60.3667 231.185 52.2722 207.979 50.4529 183.877C50.3491 181.555 50.2453 179.206 50.1414 176.857L50.1404 176.834L49.9842 173.279V173.071C49.9827 173.046 49.9822 173.021 49.9826 172.995C49.9829 172.981 49.9834 172.968 49.9842 172.954V172.498V171.586L50.0883 169.764C50.2184 167.331 50.3615 164.885 50.5047 162.439L50.5047 162.438L50.505 162.433C50.5342 161.975 50.558 161.515 50.5817 161.056C50.6215 160.287 50.6611 159.519 50.7263 158.762L51.2862 155.233C51.5212 153.911 51.7242 152.585 51.9274 151.256C52.4447 147.875 52.9641 144.481 54.0204 141.106C54.3237 139.806 54.6791 138.498 55.0355 137.187L55.0356 137.186L55.0358 137.186L55.0359 137.185L55.036 137.185L55.0361 137.185L55.0362 137.184C55.3221 136.132 55.6086 135.078 55.8693 134.023C56.2414 132.518 56.7975 131.065 57.3539 129.612C57.6734 128.777 57.993 127.942 58.278 127.097C67.4986 101.733 84.0111 79.6617 105.74 63.656C127.468 47.6503 153.444 38.4248 180.4 37.1391C207.357 35.8535 234.092 42.5651 257.246 56.4303C280.399 70.2955 298.937 90.6955 310.529 115.066C310.776 115.559 311.033 116.046 311.288 116.53C311.747 117.401 312.202 118.263 312.587 119.141C312.941 119.951 313.26 120.784 313.571 121.599C313.785 122.16 313.996 122.712 314.214 123.243L317.261 131.055C318.362 134.48 319.266 137.798 320.114 140.913C320.52 142.403 320.914 143.847 321.31 145.234C321.624 146.995 321.922 148.68 322.208 150.288L322.21 150.302L322.212 150.315C322.636 152.703 323.028 154.918 323.393 156.952C323.699 158.529 323.89 160.126 323.966 161.73ZM333.067 185.909L341.205 177.784C340.328 176.371 339.864 174.74 339.864 173.077C339.864 171.414 340.328 169.784 341.205 168.37L333.067 160.233C333.432 164.464 333.666 168.735 333.666 173.071C333.666 177.406 333.432 181.677 333.067 185.909ZM168.407 203.423L168.408 203.423L168.408 203.423C168.59 203.48 168.781 203.54 168.988 203.59L170.016 203.772C170.251 203.814 170.491 203.86 170.74 203.907L170.74 203.907L170.74 203.907C171.265 204.007 171.824 204.114 172.425 204.202L175.303 204.41C175.836 204.443 176.371 204.443 176.904 204.41H178.61C179.203 204.377 179.794 204.311 180.38 204.215L182.242 203.968C182.709 203.891 183.19 203.773 183.654 203.659L183.655 203.659C183.825 203.617 183.992 203.576 184.156 203.538L185.146 203.303C185.483 203.243 185.814 203.151 186.135 203.03C187.502 202.606 188.842 202.097 190.145 201.507C192.963 200.244 195.592 198.596 197.958 196.611L199.78 194.984C200.162 194.643 200.507 194.262 200.856 193.878L200.856 193.878C201.067 193.646 201.278 193.413 201.499 193.187C201.687 192.991 201.869 192.789 202.053 192.585C202.15 192.478 202.247 192.37 202.345 192.262C202.534 192.057 202.694 191.834 202.856 191.61L202.856 191.609L202.857 191.608L202.857 191.608L202.858 191.607C202.904 191.543 202.951 191.478 202.998 191.413C203.036 191.362 203.074 191.311 203.113 191.26C203.28 191.032 203.453 190.81 203.626 190.587L203.626 190.587L203.626 190.586L203.626 190.586L203.626 190.586L203.627 190.586L203.627 190.586L203.627 190.586C203.967 190.148 204.309 189.707 204.611 189.216L205.913 187.015L206.238 186.456L206.512 185.87L207.085 184.672L207.645 183.487C207.763 183.243 207.843 183.003 207.922 182.765L207.922 182.765C207.974 182.61 208.026 182.456 208.087 182.302L208.947 179.88C209.856 176.554 210.32 173.121 210.327 169.673C210.327 169.08 210.282 168.488 210.237 167.895C210.218 167.641 210.199 167.388 210.183 167.134C210.183 166.717 210.183 166.3 210.079 165.832C210.017 165.552 209.978 165.31 209.94 165.074C209.915 164.915 209.889 164.758 209.858 164.595C209.806 164.324 209.762 164.052 209.718 163.781L209.717 163.78L209.717 163.78L209.717 163.78L209.717 163.779L209.717 163.779L209.717 163.779L209.717 163.779C209.627 163.228 209.537 162.679 209.389 162.147C209.341 161.973 209.292 161.8 209.244 161.627C209.072 161.011 208.901 160.401 208.738 159.79C207.809 156.827 206.468 154.009 204.754 151.418C203.965 150.211 203.095 149.058 202.15 147.968C201.945 147.695 201.718 147.438 201.473 147.2L200.77 146.471C200.598 146.299 200.431 146.125 200.264 145.951C199.974 145.649 199.687 145.35 199.39 145.078L197.958 143.854C197.518 143.451 197.052 143.077 196.564 142.734L195.158 141.771C194.741 141.46 194.306 141.173 193.856 140.911L193.741 140.848C192.885 140.376 192.075 139.93 191.252 139.531C190.654 139.241 190.125 139.033 189.626 138.837C189.408 138.751 189.196 138.668 188.987 138.581L188.023 138.177L187.151 137.917L185.758 137.513L184.599 137.174L185.719 137.643L187.021 138.19L187.867 138.542L188.778 139.023C188.904 139.089 189.033 139.155 189.164 139.223C189.708 139.505 190.292 139.807 190.901 140.143L193.257 141.692C193.715 141.971 194.15 142.284 194.559 142.63L195.861 143.658C196.317 144.019 196.752 144.406 197.163 144.817L198.465 146.119C198.725 146.386 198.965 146.672 199.209 146.963C199.37 147.154 199.532 147.347 199.702 147.538L200.327 148.268C200.549 148.509 200.754 148.765 200.939 149.036C203.525 152.468 205.466 156.342 206.668 160.467C207.507 163.469 207.944 166.569 207.97 169.686C207.936 172.9 207.477 176.096 206.603 179.19L205.796 181.495C205.676 181.894 205.533 182.285 205.366 182.667L204.871 183.734L204.376 184.802L204.129 185.349L203.83 185.857L202.606 187.914C200.899 190.524 198.854 192.897 196.525 194.971L196.109 195.361L195.666 195.7L194.768 196.39C194.202 196.862 193.606 197.297 192.984 197.692L191.148 198.864C190.811 199.065 190.449 199.246 190.097 199.423C189.811 199.566 189.53 199.707 189.273 199.853C188.058 200.472 186.805 201.015 185.523 201.481C185.224 201.61 184.915 201.715 184.599 201.793L183.674 202.08C183.431 202.147 183.189 202.221 182.949 202.294L182.948 202.294C182.585 202.405 182.225 202.514 181.865 202.6L180.094 202.939C179.537 203.071 178.971 203.167 178.401 203.225L176.761 203.395C176.502 203.395 176.25 203.428 176.001 203.461L176.001 203.461C175.735 203.497 175.473 203.532 175.211 203.525H172.386C171.798 203.525 171.234 203.458 170.703 203.394L170.702 203.394C170.458 203.365 170.22 203.337 169.99 203.317L168.962 203.225C168.743 203.225 168.53 203.174 168.329 203.126L168.271 203.112L168.226 203.101C168.175 203.089 168.125 203.078 168.076 203.069L166.657 202.822L165.472 202.6L166.618 202.939L168.102 203.33C168.201 203.358 168.302 203.39 168.406 203.422L168.407 203.423ZM208.96 199.566L207.723 200.581L206.642 201.493L205.64 202.17C204.429 202.977 203.752 203.472 203.752 203.472C203.752 203.472 204.481 203.094 205.77 202.378L206.824 201.779L207.996 200.959C208.426 200.673 208.869 200.36 209.298 200.022C209.545 199.862 209.777 199.679 209.988 199.475L210.691 198.863L212.163 197.561L213.595 196.011L214.337 195.191C214.49 195.013 214.629 194.826 214.768 194.637L214.768 194.637C214.853 194.522 214.938 194.406 215.027 194.293L216.42 192.418C217.31 191.047 218.102 189.616 218.79 188.134C219.504 186.6 220.117 185.021 220.626 183.408C221.066 181.777 221.406 180.12 221.641 178.447C221.852 176.828 221.96 175.197 221.967 173.565C221.967 173.032 221.92 172.51 221.873 171.993V171.993V171.993V171.993V171.992V171.992V171.992V171.992C221.85 171.739 221.828 171.486 221.811 171.234C221.811 170.857 221.811 170.479 221.719 170.101C221.648 169.804 221.608 169.523 221.569 169.245L221.569 169.245L221.552 169.125C221.547 169.09 221.542 169.055 221.537 169.021C221.457 168.58 221.382 168.144 221.308 167.719C221.263 167.454 221.218 167.193 221.173 166.938C221.093 166.487 220.954 166.049 220.82 165.627L220.82 165.627C220.756 165.426 220.693 165.229 220.639 165.037C220.606 164.924 220.575 164.814 220.544 164.705L220.544 164.702L220.543 164.701C220.489 164.508 220.436 164.321 220.378 164.138C220.309 163.854 220.217 163.575 220.105 163.305L219.48 161.782L218.933 160.48L218.373 159.412C217.683 158.11 217.267 157.394 217.267 157.394C217.267 157.394 217.579 158.175 218.152 159.516C218.217 159.671 218.288 159.831 218.362 159.997C218.416 160.121 218.473 160.248 218.53 160.379C218.564 160.459 218.599 160.54 218.634 160.623L219.063 161.925L219.545 163.448C219.655 163.769 219.726 164.113 219.8 164.466L219.8 164.467L219.8 164.467L219.8 164.467C219.849 164.702 219.899 164.941 219.962 165.18C220.066 165.581 220.153 165.999 220.242 166.427L220.243 166.428C220.287 166.639 220.331 166.853 220.378 167.068C220.482 167.541 220.525 168.015 220.57 168.523C220.587 168.714 220.604 168.909 220.626 169.112C220.626 169.354 220.669 169.595 220.713 169.841L220.713 169.845L220.727 169.921L220.735 169.969C220.741 170.004 220.747 170.039 220.753 170.074L220.759 170.115C220.763 170.137 220.766 170.158 220.769 170.18C220.804 170.423 220.792 170.666 220.781 170.909C220.778 170.971 220.775 171.033 220.772 171.095C220.77 171.154 220.769 171.214 220.769 171.273C220.769 172.011 220.795 172.766 220.847 173.539C220.796 175.121 220.657 176.699 220.43 178.265C219.997 181.503 219.071 184.656 217.683 187.613C217.026 189.049 216.291 190.449 215.483 191.806L214.181 193.668C214.111 193.768 214.043 193.869 213.975 193.97C213.839 194.173 213.703 194.375 213.556 194.566L212.866 195.386L211.564 196.975L210.262 198.277L210.201 198.342C210.145 198.4 210.091 198.459 210.037 198.516L210.035 198.518C209.669 198.909 209.328 199.274 208.96 199.566ZM366.45 168.435C365.543 168.432 364.655 168.699 363.899 169.202C363.143 169.705 362.554 170.42 362.205 171.258C361.857 172.096 361.765 173.019 361.942 173.909C362.118 174.799 362.555 175.617 363.197 176.259C363.838 176.901 364.656 177.337 365.546 177.514C366.437 177.69 367.359 177.598 368.197 177.25C369.035 176.901 369.751 176.312 370.253 175.556C370.756 174.801 371.023 173.913 371.02 173.005C371.02 171.793 370.539 170.631 369.682 169.774C368.825 168.917 367.662 168.435 366.45 168.435ZM2.36992 169.202C3.1256 168.699 4.01348 168.432 4.92103 168.435C6.13203 168.439 7.29244 168.921 8.14875 169.777C9.00506 170.634 9.48765 171.794 9.49108 173.005C9.49366 173.913 9.22673 174.801 8.72412 175.556C8.22152 176.312 7.50587 176.901 6.6679 177.25C5.82992 177.598 4.90734 177.69 4.0171 177.514C3.12686 177.337 2.30904 176.901 1.66731 176.259C1.02557 175.617 0.588806 174.799 0.412383 173.909C0.235959 173.019 0.327816 172.096 0.676311 171.258C1.02481 170.42 1.61425 169.705 2.36992 169.202ZM176.774 251.947C178.872 253.708 181.445 254.807 184.168 255.107C186.89 255.406 189.641 254.891 192.071 253.628C194.502 252.364 196.503 250.408 197.822 248.008C199.141 245.607 199.719 242.869 199.483 240.14C199.246 237.411 198.206 234.813 196.493 232.676C194.781 230.538 192.473 228.955 189.861 228.129C187.25 227.302 184.452 227.268 181.821 228.031C179.19 228.795 176.845 230.321 175.081 232.416C173.904 233.807 173.014 235.417 172.461 237.154C171.909 238.89 171.706 240.719 171.863 242.534C172.02 244.349 172.535 246.115 173.378 247.731C174.221 249.346 175.375 250.779 176.774 251.947ZM178.909 235.658C180.034 234.32 181.531 233.346 183.21 232.859C184.889 232.371 186.675 232.392 188.341 232.92C190.008 233.447 191.481 234.457 192.574 235.821C193.668 237.185 194.332 238.843 194.483 240.585C194.634 242.326 194.265 244.074 193.423 245.606C192.581 247.138 191.304 248.386 189.753 249.193C188.202 249.999 186.446 250.327 184.708 250.136C182.971 249.945 181.329 249.243 179.99 248.119C179.1 247.372 178.367 246.457 177.831 245.426C177.295 244.396 176.968 243.27 176.868 242.112C176.767 240.955 176.896 239.79 177.246 238.682C177.596 237.575 178.161 236.547 178.909 235.658ZM178.796 266.45C178.947 265.088 179.499 263.802 180.381 262.753C180.965 262.056 181.681 261.482 182.487 261.062C183.294 260.642 184.176 260.385 185.081 260.307C185.987 260.228 186.9 260.329 187.767 260.604C188.633 260.878 189.438 261.321 190.133 261.907C191.183 262.788 191.948 263.96 192.331 265.276C192.714 266.591 192.699 267.991 192.286 269.298C191.874 270.605 191.083 271.76 190.013 272.617C188.944 273.474 187.645 273.995 186.28 274.114C184.914 274.232 183.545 273.943 182.344 273.283C181.143 272.623 180.165 271.621 179.533 270.405C178.902 269.189 178.645 267.812 178.796 266.45ZM185.68 90.8225C182.526 90.8195 179.466 91.8927 177.005 93.8648C174.543 95.8368 172.829 98.5896 172.144 101.668C171.459 104.747 171.845 107.967 173.239 110.796C174.632 113.626 176.949 115.895 179.807 117.229C182.665 118.563 185.892 118.882 188.956 118.133C192.019 117.385 194.736 115.613 196.656 113.111C198.576 110.609 199.586 107.527 199.517 104.374C199.448 101.221 198.306 98.1859 196.278 95.7702C194.981 94.2204 193.36 92.9742 191.529 92.1193C189.697 91.2644 187.701 90.8218 185.68 90.8225ZM191.344 111.446C190.004 112.575 188.359 113.281 186.618 113.474C184.877 113.668 183.117 113.34 181.562 112.533C180.007 111.726 178.726 110.476 177.882 108.941C177.038 107.406 176.668 105.655 176.82 103.91C176.971 102.164 177.637 100.503 178.733 99.1363C179.829 97.7694 181.305 96.7585 182.976 96.2313C184.647 95.7042 186.436 95.6846 188.118 96.1749C189.8 96.6653 191.299 97.6437 192.424 98.9861C193.924 100.786 194.652 103.105 194.45 105.439C194.248 107.773 193.131 109.932 191.344 111.446ZM192.331 80.7354C191.948 82.0511 191.183 83.2236 190.133 84.1044C189.438 84.6902 188.633 85.133 187.767 85.4075C186.9 85.6821 185.987 85.7829 185.081 85.7043C184.176 85.6257 183.294 85.3692 182.487 84.9494C181.681 84.5297 180.965 83.9549 180.381 83.2581C179.499 82.2096 178.947 80.9229 178.796 79.5608C178.645 78.1988 178.902 76.8225 179.533 75.6063C180.165 74.3901 181.143 73.3885 182.344 72.7283C183.545 72.0681 184.914 71.7789 186.28 71.8974C187.645 72.0159 188.944 72.5367 190.013 73.3939C191.083 74.2511 191.874 75.4062 192.286 76.713C192.699 78.0199 192.714 79.4197 192.331 80.7354Z" fill="white"/>
</svg>
